<svg xmlns="http://www.w3.org/2000/svg" viewBox="0 0 8.9 14.26"><title>apropos-2</title><g id="Calque_2" data-name="Calque 2"><g id="Calque_1-2" data-name="Calque 1"><path d="M4.14,10.6c-.16,0-.3-.12-.32-.36L3.6,7.66a.46.46,0,0,1,.46-.5C6.3,7,7.84,5.92,7.84,4v0a3.07,3.07,0,0,0-3.32-3A4.71,4.71,0,0,0,.86,2.74a.52.52,0,0,1-.4.2A.44.44,0,0,1,0,2.5a.54.54,0,0,1,.12-.34A5.51,5.51,0,0,1,4.56,0C7.2,0,8.9,1.76,8.9,3.9v0C8.9,6.42,7,7.74,4.66,8L4.5,10.24c0,.24-.16.36-.32.36Zm0,1.8a.64.64,0,0,1,.66.66v.54a.66.66,0,0,1-1.32,0v-.54A.64.64,0,0,1,4.16,12.4Z"/></g></g></svg>