<?xml version="1.0" encoding="utf-8"?>
<!-- Generator: Adobe Illustrator 22.1.0, SVG Export Plug-In . SVG Version: 6.00 Build 0)  -->
<svg version="1.1" id="Calque_1" xmlns="http://www.w3.org/2000/svg" xmlns:xlink="http://www.w3.org/1999/xlink" x="0px" y="0px"
	 viewBox="0 0 386 82" style="enable-background:new 0 0 386 82;" xml:space="preserve">
<style type="text/css">
	.st0{fill:none;stroke:#FFFFFF;stroke-width:0.8335;stroke-miterlimit:10;}
</style>
<g>
	<g>
		<g>
			<path class="st0" d="M357.6,68c-35.2,15.9-71,14.6-110.1,0.7c-4.6-1.6-14.3-0.5-19.3-0.5c-10.1,0-19.4-2-29.6-1.7
				c-8.4,0.3-41.8,4.5-57.2,7.8C87,85.9,58.7,80.3,14.4,58.7c-18-8.8-13.6-38.3,4.7-44.7C56.4,1.1,94.7,4.5,135.8,9.9
				c8.1,1.1,19.9-0.5,28-1.3c23.5-2.4,37.7-4.9,65.2-1.7c5.7,0.6,14.9,2.3,20.4,2.3c5.1,0,10.9-4.6,15.9-4.6s10.4,2.8,15.1,2.1
				c36.9-5.5,60.5-2.6,90.4,10.8c15.6,7,14.1,32.9,0.1,43.5C364.2,65.8,365.4,64.4,357.6,68z"/>
		</g>
		<g>
			<path class="st0" d="M22,15.5c9.3-3.4,19.9-5.8,29.5-6.7c29.1-3,61.4-1.3,90.6,2.3c7.6,1,18.7-0.4,26.6-1.2
				c21.9-2.1,36-4.4,61.9-1.6c5.5,0.6,14.1,2,19.4,2c4.9,0,10.4-4.1,15.1-4.1c4.7,0,9.9,2.5,14.3,1.9c35.1-4.8,58.2-2.2,86,10.1
				c14.7,6.5,15.1,30.4,2.3,40.8c-6,4.9-5.2,3.9-12.5,7.3c-8.5,3.9-17.4,6.5-26.6,8.2c-25.3,4.6-51.8,1.3-80-8
				c-4.6-1.5-13.7-0.6-18.7-0.6c-9.7-0.1-18.8-1.9-28.6-1.7c-9.3,0.2-40.6,3.9-55.3,7.1c-39.8,8.7-66.5,6.7-94.3-0.6
				c-12.7-3.3-23.6-7.8-34.8-13.6c-0.5-0.3-1-0.6-1.5-0.9C1.1,46.9,5.9,21.3,22,15.5z"/>
		</g>
		<g>
			<path class="st0" d="M25,16.9c9-3.5,20.8-6,30.4-6.5c29.9-1.7,65.5-1.4,93.2,1.9c7.1,0.9,17.4-0.3,25.2-1
				c20.4-1.8,34.3-3.8,58.6-1.5c5.2,0.5,13.2,1.8,18.4,1.8c4.6,0,9.9-3.6,14.4-3.6c4.5,0,9.4,2.2,13.6,1.7
				c33.3-4.2,55.9-1.7,81.5,9.4c13.9,6,15.9,27.7,4.5,38.1c-5.2,4.8-4.8,4.2-11.6,7.4c-8,3.7-16.5,6-25.8,7.4
				c-24.2,3.7-50,0.6-77.3-7.8c-4.6-1.4-13.1-0.6-18-0.7c-9.4-0.1-18.2-1.7-27.6-1.6c-10.2,0.1-39.4,3.3-53.4,6.4
				c-40.4,9-68.3,5.8-95.9,0c-14.6-3-25.3-7.3-35.3-12.9c-0.5-0.3-0.9-0.6-1.3-0.9C5.6,45.9,10.5,22.5,25,16.9z"/>
		</g>
		<g>
			<path class="st0" d="M27.9,18.4c8.8-3.6,21.7-6.2,31.2-6.4c30.7-0.5,69.6-1.4,95.8,1.5c6.5,0.8,16.2-0.2,23.8-0.9
				c18.9-1.6,32.6-3.3,55.4-1.4c5,0.4,12.4,1.5,17.4,1.5c4.4,0,9.3-3.1,13.6-3.1c4.2,0,8.8,1.9,12.9,1.4c31.5-3.5,53.6-1.2,77,8.8
				c13,5.5,16.8,24.9,6.7,35.4c-4.5,4.7-4.4,4.6-10.8,7.5c-7.4,3.5-15.7,5.5-24.9,6.7c-23,2.9-48.2-0.1-74.7-7.5
				c-4.6-1.3-12.6-0.7-17.4-0.8c-9.1-0.2-17.6-1.6-26.6-1.6c-11.1,0-38.2,2.7-51.6,5.7c-41,9.2-70.1,5.1-97.4,0.7
				c-16.5-2.7-27-6.7-35.8-12.2c-0.4-0.2-0.8-0.6-1.1-0.9C10.1,44.9,15,23.7,27.9,18.4z"/>
		</g>
		<g>
			<path class="st0" d="M30.9,19.9c8.6-3.7,22.6-6.4,32.1-6.2c31.5,0.8,73.6-1.6,98.3,1c6,0.6,15-0.2,22.4-0.7
				c17.4-1.3,30.9-2.8,52.1-1.3c4.8,0.4,11.6,1.2,16.4,1.2c4.2,0,8.8-2.6,12.9-2.6c4,0,8.3,1.6,12.1,1.2c29.7-2.9,51.4-0.7,72.6,8.1
				c12.1,5,17.6,22.2,8.9,32.7c-3.8,4.6-4.1,4.9-9.9,7.7c-6.9,3.2-14.9,5-24.1,5.9c-21.8,2.1-46.3-0.8-72-7.3
				c-4.6-1.2-12-0.7-16.8-0.9c-8.7-0.3-17-1.5-25.6-1.6c-12.1-0.1-37,2.1-49.7,5c-41.6,9.5-71.9,4.6-99,1.3
				C43,61.4,32.8,57.5,25.1,52.2c-0.3-0.2-0.6-0.6-0.9-0.8C14.5,43.8,19.5,24.8,30.9,19.9z"/>
		</g>
		<g>
			<path class="st0" d="M33.8,21.4c8.3-3.8,23.5-6.6,32.9-6c32.4,2.1,77.7-1.6,100.9,0.6c5.5,0.5,13.7-0.1,21-0.6
				c15.9-1,29.2-2.3,48.8-1.1c4.6,0.3,10.8,1,15.3,1c4,0,8.2-2.1,12.1-2.1c3.8,0,7.8,1.3,11.4,1c27.9-2.3,49.1-0.2,68.1,7.5
				c11.2,4.5,18.5,19.4,11.1,30c-3.1,4.4-3.7,5.3-9.1,7.8c-6.3,3-14,4.6-23.3,5.2c-20.6,1.4-44.5-1.4-69.4-7c-4.6-1-11.4-0.8-16.1-1
				c-8.4-0.4-16.4-1.4-24.7-1.6c-13-0.2-35.8,1.6-47.8,4.3c-42.2,9.8-73.8,4.2-100.5,1.9C44.2,59.6,33.3,57,27.8,50.6
				c-0.3-0.1-0.5-0.6-0.7-0.8C18.8,42.7,24.1,25.9,33.8,21.4z"/>
		</g>
		<g>
			<path class="st0" d="M36.8,22.8c8.1-4,24.4-6.8,33.8-5.8c33.2,3.5,81.7-1.7,103.5,0.2c5,0.4,12.5,0,19.5-0.4
				c14.4-0.8,27.5-1.9,45.6-1c4.4,0.2,9.9,0.7,14.3,0.7c3.7,0,7.7-1.6,11.4-1.5c3.5,0,7.2,1,10.6,0.8c26.2-1.6,46.8,0.2,63.7,6.8
				c10.3,4,19.2,16.6,13.3,27.3c-2.4,4.3-3.3,5.6-8.2,8c-5.8,2.8-13.2,4.1-22.4,4.4c-19.4,0.7-42.7-2.1-66.7-6.7
				c-4.6-0.9-10.8-0.8-15.5-1c-8.1-0.4-15.8-1.4-23.7-1.6c-13.9-0.4-34.6,1-45.9,3.6C127.2,66.5,94.3,60.3,67.9,59
				c-22.4-1.1-33.2-3.5-37.4-10c-0.2-0.1-0.3-0.6-0.5-0.8C24.8,40.2,28.6,26.9,36.8,22.8z"/>
		</g>
		<g>
			<path class="st0" d="M39.7,24.3c7.8-4.2,25.2-7,34.6-5.6c34,4.9,85.8-1.7,106-0.2c4.5,0.3,11.3,0,18.1-0.3
				c12.9-0.6,25.8-1.4,42.3-0.9c4.1,0.1,9.1,0.4,13.3,0.4c3.5,0,7.2-1,10.6-1c3.3,0,6.7,0.7,9.9,0.5c24.4-1,44.5,0.7,59.2,6.2
				c9.4,3.5,20,13.7,15.5,24.6c-1.7,4.1-3,5.9-7.4,8.1c-5.2,2.6-12.3,3.7-21.6,3.7c-18.2,0-40.9-2.7-64-6.5
				c-4.6-0.8-10.2-0.8-14.8-1.1c-7.8-0.5-15.3-1.3-22.7-1.6c-14.8-0.5-33.4,0.4-44,2.9c-43.3,10.4-77.5,3.7-103.6,3.2
				c-24.4-0.5-35.1-2.7-37.9-9.2c-0.1-0.1-0.2-0.7-0.3-0.7C29.4,38.9,33,27.9,39.7,24.3z"/>
		</g>
		<g>
			<path class="st0" d="M42.7,25.8c7.5-4.4,26.1-7.1,35.5-5.4c34.8,6.3,89.9-1.8,108.6-0.7c4,0.2,10,0.1,16.7-0.1
				c11.3-0.4,24.1-0.9,39-0.8c3.9,0,8.3,0.2,12.3,0.2c3.3,0,6.6-0.5,9.9-0.5c3,0,6.2,0.3,9.1,0.3c22.6-0.3,42.3,1.1,54.7,5.5
				c8.6,3,20.6,10.9,17.7,21.9c-1.1,4-2.6,6.3-6.5,8.3c-4.7,2.4-11.5,3.3-20.8,2.9c-17-0.6-39.1-3.3-61.4-6.2
				c-4.5-0.6-9.7-0.9-14.2-1.2c-7.4-0.6-14.7-1.2-21.7-1.5c-15.7-0.7-32.2-0.2-42.2,2.2c-43.9,10.8-79.3,3.5-105.2,3.8
				c-26.4,0.3-37-1.9-38.4-8.5c-0.1,0-0.1-0.7-0.1-0.7C34.1,37.6,37.5,28.8,42.7,25.8z"/>
		</g>
		<g>
			<path class="st0" d="M317.5,54.8c-37.7-2.8-106.9-13.9-133.3-7.3C139.7,58.7,103,50.9,77.5,52c-28.3,1.2-38.9-1.1-38.9-7.8
				l0.1-0.7c0.2-7.2,3.3-13.8,7-16.3c7.1-4.8,27-7.3,36.3-5.3c35.6,7.8,93.9-1.8,111.1-1.1c20.5,0.9,104.2-4.2,130.1,4.2
				c7.7,2.5,21.2,8.1,19.9,19.2C342.1,52.7,334.4,56.1,317.5,54.8z"/>
		</g>
	</g>
</g>
</svg>
