<svg id="Calque_1" data-name="Calque 1" xmlns="http://www.w3.org/2000/svg" xmlns:xlink="http://www.w3.org/1999/xlink" viewBox="0 0 246.51 61.16"><defs><style>.cls-1{fill:url(#Dégradé_sans_nom_74);}</style><linearGradient id="Dégradé_sans_nom_74" x1="2.11" y1="31" x2="247.89" y2="31" gradientUnits="userSpaceOnUse"><stop offset="0" stop-color="#b5c8e9"/><stop offset="1" stop-color="#9cacc7"/></linearGradient></defs><title>contour-250x62px</title><path class="cls-1" d="M5.46,15.14A61.07,61.07,0,0,0,17.91,9.85c9.48-5.21,19.93-6,30.55-6.15C69,3.34,89.5,5.42,110,6.78c19.79,1.32,39.73,2,59.42-.88,18.84-2.71,38.82-8.25,57.21-.47,17.31,7.32,26.09,27.89,17.11,45.06-2.84,5.43-6.86,8.65-13.22,8.24-5.54-.35-11.13-2.27-16.57-3.32-9.46-1.84-19.14-3.06-28.78-2.21-9.33.83-18.29,2.64-27.73,2.64-8.66,0-17.27-.11-25.84,1.37-20.6,3.55-41,3.27-61.79,3.28-17.22,0-35.16-.69-49.77-11A51.64,51.64,0,0,1,8.21,37.77C6.1,34.9,4,32,3.41,28.38S1.46,17.1,5.58,15.09c.57-.27.07-1.13-.5-.85C0,16.69,1.63,24,2.39,28.57c.81,4.88,4.41,9.27,7.53,13,7.88,9.35,18.73,15.1,30.57,17.75,9,2,18.21,2.23,27.44,2.19,11.32,0,22.64.28,34-.07s22.32-2.31,33.6-3.78c10.64-1.39,21.35-.35,32-1.08,5-.34,9.88-1.37,14.86-2a80.67,80.67,0,0,1,19-.06,162.74,162.74,0,0,1,18,3.08c4.6,1,9.51,2.66,14.28,2.18,15.19-1.52,16.45-25.1,12.49-35.87C240.26,7.9,223.61,1.08,207.66.47c-10.45-.4-20.82,1.59-31.09,3.3a226.12,226.12,0,0,1-35.9,3.15C114.35,7.09,88.2,3.5,61.91,2.79,50.47,2.49,38.2,1.93,27.05,5,19.34,7.09,12.88,11.86,5.2,14.19,4.59,14.37,4.85,15.33,5.46,15.14Z" transform="translate(-1.54 -0.42)"/></svg>