<svg xmlns="http://www.w3.org/2000/svg" xmlns:xlink="http://www.w3.org/1999/xlink" viewBox="0 0 373.34 92.64"><defs><style>.cls-1{fill:url(#Dégradé_sans_nom_74);}</style><linearGradient id="Dégradé_sans_nom_74" x1="0.51" y1="46.32" x2="372.84" y2="46.32" gradientUnits="userSpaceOnUse"><stop offset="0" stop-color="#b5c8e9"/><stop offset="1" stop-color="#9cacc7"/></linearGradient></defs><title>contour-commencerExpérience</title><g id="Calque_2" data-name="Calque 2"><g id="textes_fond" data-name="textes+fond"><path class="cls-1" d="M5.59,22.3a86.2,86.2,0,0,0,10.76-3.53c4.07-1.85,7.77-4.49,11.78-6.47,13.7-6.78,29.55-7.17,44.53-7.36,31.79-.41,63.46,2.94,95.14,5,31,2,62,2.34,92.71-2.6,28.37-4.56,60-11.76,86.57,3.45C370.3,24,379.44,55.5,364.94,78.64c-5,8-11.95,10.72-21.22,9.36-7.83-1.15-15.52-3.42-23.3-4.9-14.25-2.72-28.85-4.47-43.36-3.09-7.44.71-14.7,2.5-22.15,3.21-7.2.68-14.43.74-21.66.71-13.32-.05-26.4.19-39.53,2.64-30.92,5.77-62.27,4.32-93.55,4.43-25.59.09-52.36-1.81-73.72-17.48A79,79,0,0,1,9.17,55.78c-3.53-4.92-6.56-9.72-7-15.93C1.74,34-.65,25.18,5.77,22.22c.88-.4.12-1.69-.76-1.29C1.56,22.52.06,24.77,0,28.55,0,33.73.05,39.87,1.41,44.87c2,7.26,8,14.31,13,19.8,12.86,14.13,30.43,22.09,49,25.48,14.34,2.62,28.75,2.31,43.25,2.35,16.7,0,33.41.43,50.1-.31,8.16-.36,16.31-1,24.41-2,8.55-1.13,16.95-3.16,25.54-4,14.58-1.41,29.24-.15,43.84-1.09,8.32-.54,16.34-2.4,24.6-3.35a121.22,121.22,0,0,1,24.39-.13,227.89,227.89,0,0,1,27,4.28c7.17,1.51,14.57,4,22,4.07,12.6.1,19.46-10.79,22.73-21.75a52.43,52.43,0,0,0-1.86-34.68C359.36,9.26,332.56,0,308.1,0c-16.49,0-32.71,3.41-48.93,6a328.59,328.59,0,0,1-52.62,3.86C171.87,9.75,137.37,5.61,102.76,4c-16.59-.76-33.49-1.34-50,.35a78,78,0,0,0-21.23,4.8c-4.95,2-9.4,4.85-14.07,7.37-3.81,2.05-8.1,3.06-12.23,4.31C4.27,21.13,4.66,22.58,5.59,22.3Z"/></g></g></svg>