<svg xmlns="http://www.w3.org/2000/svg" viewBox="0 0 22.81 21.94"><defs><style>.cls-1{fill:none;stroke:#000;stroke-linecap:round;stroke-linejoin:round;stroke-width:0.8px;}</style></defs><title>icone-son-stop</title><g id="Calque_2" data-name="Calque 2"><g id="Calque_1-2" data-name="Calque 1"><path d="M2.8,7.3a2,2,0,0,1,2,2v3.34a2,2,0,0,1-4,0V9.3a2,2,0,0,1,2-2m0-.8A2.81,2.81,0,0,0,0,9.3v3.34a2.81,2.81,0,0,0,5.61,0V9.3A2.81,2.81,0,0,0,2.8,6.5Z"/><path d="M13.3.8a1.43,1.43,0,0,1,1.45,1.44V19.7a1.43,1.43,0,0,1-1.45,1.44,1.41,1.41,0,0,1-.92-.35L4.94,14.46a2.92,2.92,0,0,0,.68-1.82V9.3A2.84,2.84,0,0,0,5,7.47l7.43-6.32A1.41,1.41,0,0,1,13.3.8m0-.8a2.19,2.19,0,0,0-1.43.54l-8.19,7A2,2,0,0,1,4.81,9.3v3.34A2.11,2.11,0,0,1,3.7,14.46l8.16,6.94a2.23,2.23,0,0,0,3.69-1.7V2.24A2.24,2.24,0,0,0,13.3,0Z"/><line class="cls-1" x1="22.41" y1="8.85" x2="18.05" y2="13.21"/><line class="cls-1" x1="22.41" y1="13.21" x2="18.05" y2="8.85"/></g></g></svg>