<svg xmlns="http://www.w3.org/2000/svg" viewBox="0 0 19.64 20.09"><defs><style>.cls-1{fill:none;stroke:#000;stroke-linecap:round;stroke-linejoin:round;stroke-width:0.6px;}</style></defs><title>impression3D</title><g id="Calque_2" data-name="Calque 2"><g id="Calque_1-2" data-name="Calque 1"><path class="cls-1" d="M.3,12.47H1.4a1.23,1.23,0,0,1,1.23,1.23v4.87A1.23,1.23,0,0,1,1.4,19.79H.3a0,0,0,0,1,0,0V12.47a0,0,0,0,1,0,0Z"/><path class="cls-1" d="M14.62,15.77l2.56-2.88a1.27,1.27,0,0,1,1.72-.07,1.28,1.28,0,0,1,.44,1,1.26,1.26,0,0,1-.31.83l-3.71,4.19a2.12,2.12,0,0,1-1.61.73l-8.53,0a.76.76,0,0,1-.3-.05l-2.23-.7,0-5.23,1.27-.87a3.56,3.56,0,0,1,3.68-.22l2.3,1.2h3.87A1.24,1.24,0,0,1,15,14.88h0a1.25,1.25,0,0,1-1.24,1.24H9.26A1.45,1.45,0,0,0,8,16.81"/><polygon class="cls-1" points="7.5 3.07 7.5 8.61 12.19 11.37 16.89 8.61 16.89 3.07 12.19 0.3 7.5 3.07"/><line class="cls-1" x1="7.5" y1="3.07" x2="12.19" y2="5.84"/><line class="cls-1" x1="16.89" y1="3.07" x2="12.19" y2="5.84"/><line class="cls-1" x1="12.19" y1="11.29" x2="12.19" y2="5.84"/></g></g></svg>