<?xml version="1.0" encoding="utf-8"?>
<!-- Generator: Adobe Illustrator 22.1.0, SVG Export Plug-In . SVG Version: 6.00 Build 0)  -->
<svg version="1.1" id="Calque_1" xmlns="http://www.w3.org/2000/svg" xmlns:xlink="http://www.w3.org/1999/xlink" x="0px" y="0px"
	 viewBox="0 0 193 39" style="enable-background:new 0 0 193 39;" xml:space="preserve">
<style type="text/css">
	.st0{fill:none;stroke:#FFFFFF;stroke-width:0.15;stroke-miterlimit:10;}
	.st1{fill:none;stroke:#FFFFFF;stroke-width:0.1607;stroke-miterlimit:10;}
	.st2{fill:none;stroke:#FFFFFF;stroke-width:0.1714;stroke-miterlimit:10;}
	.st3{fill:none;stroke:#FFFFFF;stroke-width:0.1821;stroke-miterlimit:10;}
	.st4{fill:none;stroke:#FFFFFF;stroke-width:0.1929;stroke-miterlimit:10;}
	.st5{fill:none;stroke:#FFFFFF;stroke-width:0.2036;stroke-miterlimit:10;}
	.st6{fill:none;stroke:#FFFFFF;stroke-width:0.2143;stroke-miterlimit:10;}
	.st7{fill:none;stroke:#FFFFFF;stroke-width:0.225;stroke-miterlimit:10;}
	.st8{fill:none;stroke:#FFFFFF;stroke-width:0.2357;stroke-miterlimit:10;}
	.st9{fill:none;stroke:#FFFFFF;stroke-width:0.2464;stroke-miterlimit:10;}
	.st10{fill:none;stroke:#FFFFFF;stroke-width:0.2571;stroke-miterlimit:10;}
	.st11{fill:none;stroke:#FFFFFF;stroke-width:0.2679;stroke-miterlimit:10;}
	.st12{fill:none;stroke:#FFFFFF;stroke-width:0.2786;stroke-miterlimit:10;}
	.st13{fill:none;stroke:#FFFFFF;stroke-width:0.2893;stroke-miterlimit:10;}
	.st14{fill:none;stroke:#FFFFFF;stroke-width:0.3;stroke-miterlimit:10;}
	.st15{opacity:0.4;fill:#FFFFFF;}
</style>
<g>
	<g>
		<g>
			<path class="st0" d="M177,32.7c-17.4,7.9-37.4,9.1-56.8,2.3c-2.3-0.8-4.9,0-7.4,0c-5,0-9,2-14,2c-2.9,0-9.1-0.1-12-0.1
				c-3.4,0-13.5,0.4-17,0.6c-27.6,1.5-41,1.4-63-9.4C-2.1,23.8,0.1,9.1,9.2,6c18.5-6.4,37.5-4.7,57.9-2.1c4,0.5,9.9-0.2,13.9-0.7
				c11.6-1.2,18.7-2.4,32.3-0.9c2.8,0.3,7.4,1.1,10.1,1.1c2.5,0,5.4-2.3,7.9-2.3s5.2,1.4,7.5,1.1c18.3-2.7,32.7-3,47.6,3.7
				c7.7,3.5,7,16.3,0.1,21.6C183,30,180.9,31,177,32.7z"/>
		</g>
		<g>
			<path class="st1" d="M10.5,6c17.3-5.6,38-4.4,57-1.9c3.7,0.5,9.9-0.2,13.7-0.6C92,2.4,100.3,1.2,113,2.6c2.6,0.3,7.4,1.1,10,1.1
				c2.3,0,5.5-2.1,7.8-2.1s5.2,1.3,7.4,1C155.1,0,171,0.1,185,6c4.2,1.8,6.3,6.1,6.1,10.8c0,0,0,0,0,0c-0.2,4.4-2.5,8.7-6,11.2
				c-3.2,2.2-5.7,3.2-9.3,4.8c-16.2,7.3-37.9,8.5-55.8,2.1c-2.1-0.8-5,0-7.3,0c-4.6,0-9.1,1.8-13.8,1.8c-2.7,0-9.1-0.1-11.8-0.1
				c-3.2,0-13.5,0.4-16.7,0.6C44.7,38.5,29,38,8.4,28.5c-4.7-2.2-6.7-7-6.1-11.8c0,0,0,0,0,0C2.8,11.9,5.8,7.5,10.5,6z"/>
		</g>
		<g>
			<path class="st2" d="M11.9,5.9c16-4.9,38.6-4,56.1-1.8C71.4,4.6,78,4,81.4,3.6c10-1,19.6-2.1,31.3-0.7c2.4,0.3,7.5,1,9.8,1
				c2.2,0,5.6-2,7.7-2c2.1,0,5.3,1.2,7.3,0.9c15.7-2.3,33.2-2,46.2,3.2c4.4,1.7,6.8,6.1,6.7,11c0,0,0,0,0,0c-0.2,4.6-2.8,9-6.6,11.4
				c-3,1.9-5.9,2.9-9.2,4.4c-14.9,6.8-38.3,7.8-54.9,1.9c-2-0.7-5,0-7.1,0c-4.3,0-9.2,1.7-13.5,1.7c-2.5,0-9.1-0.1-11.6-0.1
				c-2.9,0-13.4,0.4-16.4,0.5c-23.6,1.3-41.7,0.3-61-8C5,26.7,2.6,21.9,3.2,16.9c0,0,0,0,0,0C3.7,11.9,7,7.4,11.9,5.9z"/>
		</g>
		<g>
			<path class="st3" d="M13.2,5.9C28,1.6,52.4,2.2,68.4,4.3c3.1,0.4,10.1-0.2,13.2-0.5c9.1-0.9,20.1-1.9,30.8-0.7
				c2.2,0.3,7.5,0.9,9.7,0.9c2,0,5.6-1.8,7.5-1.8c1.9,0,5.3,1.1,7.1,0.8c14.4-2.1,33.5-1.5,45.4,2.9c4.6,1.7,7.4,6.1,7.2,11.2
				c0,0,0,0,0,0c-0.2,4.9-3.2,9.2-7.2,11.6c-2.8,1.7-6,2.7-9.1,4.1c-13.7,6.2-38.8,7.2-54,1.8c-1.8-0.6-5.1,0-7,0
				c-3.9,0-9.3,1.6-13.3,1.6c-2.3,0-9.1-0.1-11.4-0.1c-2.7,0-13.4,0.3-16.1,0.5c-21.7,1.2-42.2-0.1-60-7.4c-5-2.1-7.9-6.8-7.3-12
				c0,0,0,0,0,0C4.6,11.9,8.2,7.4,13.2,5.9z"/>
		</g>
		<g>
			<path class="st4" d="M14.6,5.9C28,2.2,54.3,2.5,68.9,4.4C71.7,4.8,79,4.3,81.9,4c8.3-0.8,20.5-1.7,30.3-0.6
				c2,0.2,7.5,0.8,9.5,0.8c1.8,0,5.7-1.6,7.4-1.6c1.7,0,5.4,1,7,0.8c13.1-1.9,33.8-1.2,44.7,2.6c4.9,1.7,8,6.1,7.8,11.4c0,0,0,0,0,0
				c-0.1,5.1-3.5,9.4-7.8,11.7c-2.6,1.4-6.2,2.4-9,3.7c-12.5,5.6-39.3,6.5-53.1,1.6c-1.6-0.6-5.1,0-6.9,0c-3.6,0-9.5,1.4-13.1,1.4
				c-2.1,0-9.1-0.1-11.2-0.1c-2.4,0-13.3,0.3-15.8,0.4c-19.7,1.1-42.6-0.4-58.9-6.7c-5.2-2-8.4-6.8-7.8-12.2c0,0,0,0,0,0
				C5.5,11.9,9.3,7.4,14.6,5.9z"/>
		</g>
		<g>
			<path class="st5" d="M15.9,5.9c12.2-3.2,40.3-3,53.4-1.3c2.6,0.3,10.2-0.2,12.8-0.4c7.5-0.8,21-1.6,29.8-0.6
				c1.8,0.2,7.6,0.7,9.3,0.7c1.6,0,5.8-1.5,7.3-1.5c1.6,0,5.4,0.9,6.9,0.7c11.8-1.7,34.1-0.9,44,2.4c5.1,1.7,8.5,6.1,8.4,11.6
				c0,0,0,0,0,0c-0.1,5.3-3.8,9.6-8.3,11.9c-2.4,1.2-6.4,2.2-8.9,3.3c-11.2,5.1-39.7,5.9-52.2,1.5c-1.5-0.5-5.2,0-6.8,0
				c-3.2,0-9.6,1.3-12.8,1.3c-1.9,0-9.1-0.1-10.9-0.1c-2.2,0-13.3,0.3-15.5,0.4c-17.7,0.9-43.2-0.6-57.9-6c-5.4-2-9-6.7-8.4-12.3
				c0,0,0,0,0,0C6.4,11.9,10.5,7.3,15.9,5.9z"/>
		</g>
		<g>
			<path class="st6" d="M17.3,5.9c10.9-2.7,40.8-2.7,52.5-1.2C72.1,5,80,4.6,82.3,4.3C89,3.7,103.8,3,111.6,3.8
				c1.6,0.2,7.6,0.6,9.2,0.6c1.4,0,5.8-1.3,7.2-1.3s5.5,0.8,6.8,0.6c10.5-1.6,34.4-0.7,43.3,2.1c5.3,1.7,9.1,6.1,8.9,11.8
				c0,0,0,0,0,0c-0.1,5.6-3.8,10.6-8.9,12.1c-1.9,1.4-6.6,2-8.8,3c-10,4.5-40.2,5.2-51.3,1.3c-1.3-0.5-5.2,0-6.6,0
				c-2.8,0-9.7,1.1-12.6,1.1c-1.7,0-9.1-0.1-10.7-0.1c-2,0-13.2,0.3-15.2,0.4c-15.7,0.8-43.7-0.8-56.9-5.4c-5.6-1.9-9.3-6.6-9-12.4
				c0,0,0,0,0,0C7.3,11.9,11.6,7.3,17.3,5.9z"/>
		</g>
		<g>
			<path class="st7" d="M18.6,5.9c9.5-2.2,41.4-2.4,51.6-1c2,0.3,10.3-0.1,12.3-0.3c5.8-0.6,21.9-1.2,28.7-0.4
				c1.4,0.2,7.6,0.6,9,0.6c1.3,0,5.9-1.1,7.1-1.1s5.5,0.7,6.7,0.5c9.1-1.4,34.8-0.5,42.6,1.8c5.5,1.6,9.6,6.1,9.5,12c0,0,0,0,0,0
				c-0.1,5.8-4.1,11-9.5,12.3c-1.7,1.2-6.8,1.7-8.7,2.6c-8.7,3.9-40.7,4.6-50.4,1.1c-1.1-0.4-5.3,0-6.5,0c-2.5,0-9.8,1-12.4,1
				c-1.4,0-9.1-0.1-10.5-0.1c-1.7,0-13.2,0.2-14.9,0.3c-13.8,0.7-44.3-0.9-55.9-4.7c-5.8-1.9-9.8-6.5-9.5-12.6c0,0,0,0,0,0
				C8.2,11.9,12.8,7.2,18.6,5.9z"/>
		</g>
		<g>
			<path class="st8" d="M20,5.8c8.2-1.8,42-2,50.7-0.9c1.7,0.2,10.4-0.1,12.1-0.3c5-0.5,22.4-1,28.2-0.4c1.2,0.1,7.7,0.5,8.9,0.5
				c1.1,0,6-1,7-1c1,0,5.6,0.6,6.6,0.5c7.8-1.2,35.1-0.3,41.9,1.6c5.8,1.6,10.3,6.1,10.1,12.2c0,0,0,0,0,0
				c-0.2,6-4.4,11.4-10.1,12.4c-1.4,1-7,1.5-8.6,2.2c-7.5,3.4-41.1,3.9-49.4,1c-1-0.4-5.3,0-6.4,0c-2.1,0-10,0.9-12.1,0.9
				c-1.2,0-9.1-0.1-10.3-0.1c-1.5,0-13.2,0.2-14.6,0.3C62,35.4,29,33.9,19,30.8c-6-1.9-10.4-6.5-10.1-12.7c0,0,0,0,0,0
				C9.1,11.9,13.9,7.2,20,5.8z"/>
		</g>
		<g>
			<path class="st9" d="M21.3,5.8c6.8-1.5,42.5-1.7,49.8-0.7C72.6,5.3,81.6,5,83,4.9c4.2-0.4,22.9-0.9,27.7-0.3
				c1,0.1,7.7,0.4,8.7,0.4c0.9,0,6-0.8,6.9-0.8c0.9,0,5.6,0.5,6.5,0.4c6.5-1,35.5-0.2,41.1,1.3c6,1.6,10.7,6.1,10.6,12.4
				c0,0,0,0,0,0c-0.1,6.3-4.7,11.7-10.6,12.6c-1.2,0.9-7.1,1.2-8.5,1.8c-6.2,2.8-41.6,3.3-48.5,0.8c-0.8-0.3-5.4,0-6.2,0
				c-1.8,0-10.1,0.7-11.9,0.7c-1,0-9.1,0-10.1,0c-1.2,0-13.1,0.2-14.3,0.2c-9.8,0.5-45.5-0.9-53.9-3.3c-6.2-1.8-10.9-6.4-10.7-12.8
				c0,0,0,0,0,0C10,11.9,15,7.2,21.3,5.8z"/>
		</g>
		<g>
			<path class="st10" d="M22.7,5.8c5.5-1.1,43.1-1.3,48.9-0.6C72.7,5.4,82.1,5.2,83.2,5c3.3-0.3,23.3-0.7,27.2-0.2
				c0.8,0.1,7.8,0.3,8.5,0.3c0.7,0,6.1-0.7,6.8-0.7c0.7,0,5.7,0.4,6.3,0.3c5.2-0.8,35.9-0.1,40.4,1.1c6.3,1.6,11.3,6.1,11.2,12.7
				c0,0,0,0,0,0c-0.1,6.5-4.9,12.1-11.2,12.8c-1,0.7-7.3,1-8.4,1.5c-5,2.3-42.1,2.6-47.6,0.6c-0.7-0.2-5.4,0-6.1,0
				c-1.4,0-10.2,0.6-11.7,0.6c-0.8,0-9.1,0-9.9,0c-1,0-13.1,0.1-14,0.2C67,34.5,28.3,34.5,22,31.4c-6.6-0.6-11.4-6.3-11.2-13
				c0,0,0,0,0,0C10.9,11.8,16.2,7.1,22.7,5.8z"/>
		</g>
		<g>
			<path class="st11" d="M24,5.8c4.1-0.8,43.6-1,48-0.4c0.9,0.1,10.6-0.1,11.4-0.1C86,5,107.2,4.7,110.2,5c0.6,0.1,7.8,0.2,8.4,0.2
				c0.5,0,6.2-0.5,6.7-0.5s5.7,0.3,6.2,0.2c3.9-0.6,36.5-0.6,39.7,0.8c6.7,0.4,11.8,6.1,11.8,12.9c0,0,0,0,0,0
				c0,6.7-5.2,12.4-11.8,13c-0.7,0.5-7.5,0.7-8.3,1.1c-3.7,1.7-42.5,2-46.7,0.5c-0.5-0.2-5.5,0-6,0c-1.1,0-10.3,0.4-11.4,0.4
				c-0.6,0-9.1,0-9.7,0c-0.7,0-13,0.1-13.7,0.1c-5.9,0.3-47.1,0.3-51.8-2c-6.8-0.5-11.9-6.3-11.8-13.1c0,0,0,0,0,0
				C11.8,11.8,17.3,7.1,24,5.8z"/>
		</g>
		<g>
			<path class="st12" d="M25.4,5.8c2.7-0.5,44.2-0.7,47.1-0.3c0.6,0.1,10.6,0,11.2-0.1c1.7-0.2,24.2-0.3,26.2-0.1
				c0.4,0,7.8,0.2,8.2,0.2c0.4,0,6.2-0.3,6.6-0.3s5.8,0.2,6.1,0.2c2.6-0.4,36.9-0.4,39,0.5c6.9,0.3,12.4,6.1,12.4,13.1c0,0,0,0,0,0
				c0,7-5.5,12.8-12.4,13.1c-0.5,0.3-7.7,0.5-8.3,0.7c-2.5,1.1-43,1.3-45.8,0.3c-0.3-0.1-5.5,0-5.9,0c-0.7,0-10.5,0.3-11.2,0.3
				c-0.4,0-9.1,0-9.5,0c-0.5,0-13,0.1-13.5,0.1c-3.9,0.2-47.7,0.2-50.8-1.3c-7-0.3-12.5-6.2-12.4-13.2c0,0,0,0,0,0
				C12.7,11.8,18.5,7,25.4,5.8z"/>
		</g>
		<g>
			<path class="st13" d="M26.7,5.8c1.4-0.2,44.8-0.3,46.2-0.1c0.3,0,10.7,0,11,0c0.8-0.1,24.7-0.2,25.7-0.1c0.2,0,7.9,0.1,8.1,0.1
				c0.2,0,6.3-0.2,6.5-0.2c0.2,0,5.8,0.1,6,0.1c1.3-0.2,37.2-0.2,38.3,0.3c7.2,0.1,12.9,6.1,12.9,13.3c0,0,0,0,0,0
				c0,7.2-5.8,13.1-12.9,13.3c-0.2,0.2-7.9,0.2-8.2,0.4c-1.2,0.6-43.5,0.7-44.9,0.2c-0.2-0.1-5.6,0-5.7,0c-0.4,0-10.6,0.1-10.9,0.1
				c-0.2,0-9.1,0-9.3,0c-0.2,0-12.9,0-13.2,0c-2,0.1-48.2,0.1-49.8-0.7c-7.2-0.2-13.4-6.2-12.9-13.4c0,0,0,0,0,0
				C13.7,11.8,19.6,7,26.7,5.8z"/>
		</g>
		<g>
			<path class="st14" d="M167.1,32.7h-139c-7.4,0-13.5-6.1-13.5-13.5v0c0-7.4,6.1-13.5,13.5-13.5h139c7.4,0,13.5,6.1,13.5,13.5v0
				C180.6,26.7,174.5,32.7,167.1,32.7z"/>
		</g>
	</g>
	<g>
		<path class="st15" d="M167.1,32.7h-139c-7.4,0-13.5-6.1-13.5-13.5v0c0-7.4,6.1-13.5,13.5-13.5h139c7.4,0,13.5,6.1,13.5,13.5v0
			C180.6,26.7,174.5,32.7,167.1,32.7z"/>
	</g>
</g>
</svg>
