<?xml version="1.0" encoding="utf-8"?>
<!-- Generator: Adobe Illustrator 23.0.2, SVG Export Plug-In . SVG Version: 6.00 Build 0)  -->
<svg version="1.1" id="Calque_1" xmlns="http://www.w3.org/2000/svg" xmlns:xlink="http://www.w3.org/1999/xlink" x="0px" y="0px"
	 viewBox="0 0 200 200" style="enable-background:new 0 0 200 200;" xml:space="preserve">
<style type="text/css">
	.st0{fill:#FFFFFF;}
	.st1{clip-path:url(#SVGID_2_);}
	.st2{fill:url(#SVGID_3_);}
	.st3{clip-path:url(#SVGID_5_);fill:url(#SVGID_6_);}
	.st4{clip-path:url(#SVGID_5_);fill:url(#SVGID_7_);}
</style>
<g>
	<circle class="st0" cx="100" cy="100" r="88.5"/>
	<g>
		<defs>
			<circle id="SVGID_1_" cx="100" cy="100" r="88.5"/>
		</defs>
		<clipPath id="SVGID_2_">
			<use xlink:href="#SVGID_1_"  style="overflow:visible;"/>
		</clipPath>
		<g class="st1">
			<g>
				
					<linearGradient id="SVGID_3_" gradientUnits="userSpaceOnUse" x1="-4.0507" y1="-311.4305" x2="-106.508" y2="-152.7785" gradientTransform="matrix(0.688 0.7257 -0.7257 0.688 -32.4897 295.5721)">
					<stop  offset="0" style="stop-color:#B8EEFC;stop-opacity:0"/>
					<stop  offset="0.1727" style="stop-color:#BEE7F9"/>
					<stop  offset="0.2849" style="stop-color:#C5E5F5"/>
					<stop  offset="0.4529" style="stop-color:#DAE0EB"/>
					<stop  offset="0.569" style="stop-color:#ECDCE2"/>
					<stop  offset="0.6676" style="stop-color:#E4D7E6"/>
					<stop  offset="0.8175" style="stop-color:#CFCAEF"/>
					<stop  offset="0.9992" style="stop-color:#ADB4FF"/>
					<stop  offset="1" style="stop-color:#ADB4FF"/>
				</linearGradient>
				<path class="st2" d="M13.62,116.57c-2.16-8.13-12.78-16.27-12.08-24.21c0.35-3.97,1.02-7.87,1.87-11.29
					c1.61-8.08,5.09-15.05,9.04-22.18c1.11-1.9,2.23-3.68,3.39-5.39c1.15-1.71,2.34-3.35,3.57-4.95
					c7.1-9.25,25.81-27.96,35.89-33.95c1.65-1.05,3.34-2.05,5.07-2.97c3.45-1.85,7.03-3.42,10.74-4.64c1.4-0.49,2.81-0.94,4.24-1.37
					c2.86-0.84,5.79-1.55,8.79-2.11c2.4-0.45,4.79-0.8,7.17-1.05c2.23-0.52,4.65-0.64,7.07-0.61c2.42,0.03,4.85,0.21,7.09,0.27
					c9.18,0.29,18.07,2.43,26.47,5.76c1.68,0.66,3.34,1.37,4.98,2.13c14.03,5.94,35.07,25.81,44.35,37.57
					c1.11,1.49,2.18,3.02,3.2,4.59c6.12,9.41,0.54,20.15,2.73,31.86c1.65,8.79,1.93,17.52,1,25.96c-0.23,2.11-0.54,4.2-0.92,6.27
					c-2.63,7.86-3.8,15.99-7.75,23.4c-1.14,2.13-2.15,3.96-3.21,5.74c-10.59,17.81-27.37,31.84-48.02,38.69
					c-3.75,1.24-7.63,2.25-11.63,3c-20.92,3.25-42.99,0.35-61.36-10.86c-3.58-2.12-6.99-4.49-10.22-7.09
					c-12.93-10.38-23.01-24.42-28.48-40.94C15.38,124.44,14.37,120.56,13.62,116.57z"/>
			</g>
			<g>
				<defs>
					<path id="SVGID_4_" d="M198.71,100.3c0,2.26-0.08,4.5-0.25,6.71c-0.17,2.22-0.41,4.41-0.74,6.57
						c-1.33,8.21-3.07,16.34-7.14,24.04c-1.05,2.18-2.24,4.3-3.29,6.15c-11.43,20.17-50.56,46.39-73.4,52.67
						c-3.74,1.03-7.57,1.81-10.87,2.18c-19.57,2.13-29.91-1.19-46.71-11.74c-3.72-2.25-6.86-4.38-9.85-6.69
						c-14.92-11.54-26.05-27.74-31.19-46.43c-1.03-3.74-11.82-17.58-12.4-21.62c-0.71-3.8-1.12-7.59-1.24-11.34
						c-0.12-3.75,10.05-7.47,10.49-11.15c1.15-10.86,4.64-21.32,10.35-30.86c1.02-1.77,2.04-3.43,3.08-5.02s2.11-3.11,3.22-4.6
						c7.15-10.47,17.03-18.02,27.17-24.83c1.44-0.89,2.91-1.75,4.4-2.55c2.98-1.61,6.06-3.05,9.25-4.28c1.6-0.6,3.22-1.15,4.86-1.65
						c4.1-1.26,8.33-2.23,12.67-2.88c1.44-0.22,2.9-0.4,4.37-0.55c4.07-0.77,8.03-0.96,12.08-0.64c1.35,0.11,2.71,0.27,4.08,0.49
						c7.42,0.14,14.61,1.81,21.55,4.41c1.73,0.65,3.45,1.36,5.16,2.12c16.01,5.96,29.38,17.58,39.19,31.99
						c1.06,1.57,2.08,3.17,3.04,4.81C184.3,68.73,198.71,84,198.71,100.3z"/>
				</defs>
				<clipPath id="SVGID_5_">
					<use xlink:href="#SVGID_4_"  style="overflow:visible;"/>
				</clipPath>
				<linearGradient id="SVGID_6_" gradientUnits="userSpaceOnUse" x1="105.5379" y1="2.7762" x2="123.7498" y2="425.8528">
					<stop  offset="0" style="stop-color:#B8EEFC;stop-opacity:0"/>
					<stop  offset="0.1727" style="stop-color:#BEE7F9"/>
					<stop  offset="0.2126" style="stop-color:#CCD7F2"/>
					<stop  offset="0.3042" style="stop-color:#E7B7E5"/>
					<stop  offset="0.3815" style="stop-color:#F8A4DD"/>
					<stop  offset="0.4347" style="stop-color:#FE9DDA"/>
					<stop  offset="0.5932" style="stop-color:#9A7CEC"/>
					<stop  offset="0.7557" style="stop-color:#3058FF"/>
				</linearGradient>
				<path class="st3" d="M188,79c-0.97-0.68-5.64-3.14-7.93-3.91c-1.2-0.46-2.73-1.16-5.07-2.63c-0.31-0.34-0.63-0.67-0.95-0.99
					c-1.26-1.26-2.31-2.71-3.11-4.3c-1.24-2.45-2.8-4.74-4.61-6.8c-1.2-1.37-2.52-2.65-3.94-3.81c-7.59-6.15-17.73-9.19-27.63-7.68
					c-1.98,0.3-3.95,0.79-5.91,1.38c-8.69,1.82-23.79-2.82-26.12,9.96c12.2-5.08,20.84,3.18,26.16,12.57
					c0.76,1.34,1.45,2.71,2.08,4.06c3.13,4.87-0.36,9.52-3.26,13.58c2.32-3.49,4.07-8.71,1.64-13.06c-0.63-1.3-1.38-2.64-2.15-3.97
					c-3.05-5.31-6.28-10.47-12.86-12.02c-5.23-1.16-9.29,2.9-12.78,6.39c-7.55-14.52,11.62-16.85,19.75-23.24
					c-5.23-5.23-12.78-5.81-19.75-5.81c-7.55,0.58-15.1,4.65-23.31,2.96c-1.85,0.17-3.72,0.48-5.55,0.88
					c-9.19,2-17.68,6.34-24.19,13.28c-1.3,1.39-2.53,2.88-3.67,4.5c-15.31,16.73-1.95,36.48,10.83,49.84
					c-2.32,0-4.65-1.74-6.85-1.45c-2.59-0.44-3.61,0.28-2.44,2.61c4.65,10.46,16.27,15.69,23.41,24.17
					c1.15,1.21,2.63,2.38,4.09,3.56c2.93,2.35,5.8,4.71,8.51,7.13c-5.81-4.65-13.36-5.23-19.75-8.13
					c4.07,9.29,12.78,15.1,22.3,19.34c1.68,0.76,3.36,1.47,5.01,2.15c-1.45,0.58-2.9,0.73-4.39,0.75c-1.48,0.02-2.99-0.09-4.56-0.01
					c-5.58-0.15-11.97-0.15-17.78-1.31c2.9,1.74,5.23,2.9,7.9,4.72c1.39,0.69,2.81,1.33,4.25,1.9c4.34,1.72,8.9,2.86,13.5,3.19
					c3.07,0.22,6.15,0.07,9.63-0.4c-2.75,0.47-5.07-1.27-6.82-3.01c2.61-0.29,5.26-0.65,7.88-1.17c2.67-0.5,6.86-0.58,11.25-1.11
					c1.85-0.2,3.71-0.43,5.57-0.72c9.58-1.65,19.46-3.97,25.85-11.52c-0.58,0-1.16,0-1.74,0c1.46-0.94,2.85-1.98,4.17-3.09
					c7.45-3.3,15.58-7.37,19.06-16.08c4.07-11.04-4.65-20.33-12.2-27.3c-9.88-8.71,2.9-12.78,10.02-15.62
					c0.97-1.73,1.27-3.91,1.39-6.3c0.22-4.8-0.36-9.45-1.53-14.09c0.29,3.78,0.29,7.7-0.23,11.52c-0.17,1.27-0.4,2.54-0.7,3.78
					c-0.82,0.97-0.82,2.71-1.4,3.29c-5.81,4.65-18.01,2.32-18.01,10.46c-0.58,12.78,18.59,26.14,9.88,38.92
					c1.74-2.32,2.9-4.65,4.65-6.97c-3.49,6.39-9.29,11.04-16.85,9.29c6.39,0.58,15.1-3.49,13.94-11.04
					c-0.58,5.23-5.23,9.29-9.88,8.71c-11.62-0.58-22.66,1.16-33.85,2.91c-1.86,0.39-3.53,0.96-5.08,1.74
					c1.07-1.16,2.4-1.97,4.03-2.5c11.66-2.73,23.86-2.15,35.48-1.57c4.65,0,9.29-2.9,10.46-7.55
					c-10.46,0.58-10.46-13.36-16.27-19.17c4.07,2.9,6.97,8.13,6.97,13.36c1.16-9.88-12.2-14.52-19.75-18.59
					c-4.65-1.74-6.97-6.39-9.29-11.04c-1.74-2.9-4.65-0.58-5.23,1.74c0.58-1.16-0.58-2.9,2.9-2.32c-4.07,5.23-2.32,13.94-9.29,16.85
					c-4.65,1.74-9.29,0-12.81-3.35c-2-1-3.45-2.6-4.47-4.56c-1.02-1.96-1.6-4.28-1.89-6.61c-1.74-13.36-5.23-26.14-15.18-34.58
					c-1.4-0.5-2.82-0.81-4.24-0.97c-5.68-0.6-11.36,1.46-16.01,5.34c1.74-2.9,5.23-4.07,7.55-6.39c-1.74,0.58-2.9,2.32-4.07,3.49
					c4.21-2.32,8.57-3.05,12.77-2.56c1.4,0.16,2.79,0.46,4.14,0.88c13.29,9.81,13.29,26.08,18.52,40.6c0.58,1.6,1.56,2.61,2.75,3.22
					c13.51,4.91,14.68-13.68,20.53-21.25c0.49-1.44,0.97-2.89,1.44-4.34c0.47-1.45,0.94-2.9,1.42-4.35c0.58-1.74,2.9-2.9,3.49-2.32
					c1.55,1.16,2.92,2.44,4.14,3.8c1.22,1.37,2.13,2.87,2.45,4.55c-0.2,6.75-4.27,13.14-1.37,19.53c2.9,4.65,8.71,6.97,14.52,5.81
					c-3.49-13.94,10.46-15.69,19.76-20.73c0.51-1.41,0.91-2.84,1.1-4.34c0.37-3.01,0.24-6.11-0.53-9.2
					c-3.05-11.33-14.27-16.77-24.83-15.36c-1.76,0.24-3.54,0.47-5.62,0.13c-2.66-0.46-4.99-1.62-7.89-2.2
					c4.07,0.58,8.13,2.32,11.91-0.36c1.6-0.62,3.27-1.03,4.97-1.26c1.71-0.23,3.45-0.26,5.19-0.12c9.29,1.16,18.01,6.39,22.08,15.1
					c1.74,4.36,1.2,9.04,1.13,13.81c-0.02,1.59,0,3.19,0.19,4.78c0.43,5.81-6.54,5.81-10.03,8.71c-1.16,1.16-1.16,2.9-0.58,4.07
					c4.07,5.81,9.29,9.88,12.2,16.27c6.97,14.52-4.07,27.88-16.1,34.82c-1.19,1.28-2.45,2.49-3.76,3.64
					c-3.93,3.45-8.38,6.28-13.2,8.31c-1.65,0.74-3.33,1.39-5.05,1.97c-3.23,1.14-6.01,2.01-8.79,2.64
					c-4.39,1.22-7.25,2.31-10.06,3.17c-3.6,1.27-6.89,2.15-10.25,2.66c-11.75,1.78-24.26-1.09-34.42-7.64
					c-1.45-0.94-2.85-1.95-4.2-3.03c-5.13-5.87-15-11.1-13.84-19.82c5.81,2.9,9.88,8.71,16.85,8.71
					c-2.32-4.65-8.78-10.07-11.45-15.41c-0.67-1.33-1.1-2.66-1.08-3.91c-0.25-1.6,0.91-2.18,2.07-3.34
					c-2.9-1.74-1.74,1.74-2.77,2.26c-0.08,1.08,0.32,2.24,0.9,3.38c2.32,4.56,7.49,8.69,8.26,14.11c-2.83-5.01-5.75-9.94-8.72-14.82
					c-0.99-1.63-1.91-3.18-2.8-4.68c-3.58-4.9-6.49-10.13-9.35-14.6c-1.18-1.25-1.92-2.74-2.67-4.32c-0.76-1.58-1.54-3.24-2.8-4.83
					c-0.64-1.4-1.23-2.81-1.75-4.24c-2.62-7.12-3.75-14.72-3.26-22.23c-0.58,5.81-1.16,12.2,0,18.01
					c-1.74-6.97-1.16-13.36-1.74-20.33c0.58,8.71-6.39,12.78-13.07,17.3c-1.13,1.21-1.99,4.44-2.47,8.28
					c-0.48,3.84-0.62,7.74-0.44,11.61c-0.44,3.84-0.94,8.32-1.49,13.12c-2.72,24-6.35,55.99-6.35,55.99s48.8,33.69,52.28,35.44
					c3.49,1.74,169.63-11.62,169.63-11.62l-12.78-78.43L188,79z"/>
				<linearGradient id="SVGID_7_" gradientUnits="userSpaceOnUse" x1="112.4464" y1="66.6984" x2="71.7211" y2="256.7495">
					<stop  offset="0" style="stop-color:#FFEED6"/>
					<stop  offset="0.5409" style="stop-color:#FE9DDA"/>
					<stop  offset="0.9658" style="stop-color:#A3C6FC"/>
					<stop  offset="1" style="stop-color:#9CC9FF"/>
				</linearGradient>
				<path class="st4" d="M14.73,137.77c0,0-3.05-12.53-3.31-21.44c-0.09-2.97,0.13-5.57,0.78-7.38c1.12-3.74,3.35-3.55,6.24-0.56
					c3.55,4.69,7.03,8.18,10.52,13.41c2.03,2.9,4.36,5.52,6.9,7.99c1.27,1.23,2.6,2.43,3.97,3.61c1.37,1.18,2.78,2.31,4.23,3.43
					c-1.15,1.22-2.31,2.4-3.31,3.18c-1.13,0.89-0.01,3.13,1.39,5.37c2.8,4.48,6.14,8.55,10.04,12.04c1.95,1.75,4.05,3.36,6.35,4.87
					c11.27,8.64,25.36,13.58,39.18,12.13c3.45-0.36,6.89-1.12,10.27-2.33c2.9-1.02,5.84-2.21,8.74-3.58
					c2.51-0.52,4.98-1.22,7.38-2.07c1.21-0.43,2.45-0.9,3.74-1.42c1.3-0.52,2.66-1.08,4.12-1.71c6.75-2.35,12.72-6.34,17.68-11.41
					c1.24-1.27,2.46-2.59,4.48-3.88c5.56-2.99,10.21-8.8,13.11-14.61c6.97-14.52-8.71-23.82-11.62-36.6
					c-1.16-4.65,8.13-2.9,9.57-8.41c0-1.47-0.05-2.99-0.1-4.52c4.47-17.86-11.79-34.13-30.38-31.23c-1.45,0.29-2.9,0.73-4.28,1.31
					c-4.43,2.76-9.66-1.31-14.31,1.02c5.23-1.16,9.29,2.9,14.78,2.15c1.74-0.54,3.57-0.84,5.41-0.92
					c5.52-0.22,11.18,1.67,15.25,5.74c4.94,4.65,7.12,11.04,6.98,17.42c-0.03,1.6-0.21,3.19-0.63,4.71
					c-7.51,7.49-24.93,7.49-20.29,22.02c-5.23,1.16-10.46-1.74-13.94-5.81c-4.65-6.97,1.74-12.78,1.72-19.91
					c-0.22-1.64-0.91-3.15-1.88-4.55c-0.97-1.4-2.07-2.74-3.33-4c-2.32-2.32-5.81,0-6.97,2.9c-0.68,1.74-1.36,3.71-2.07,5.77
					s-1.45,4.22-2.77,6.64c-3.88,5.01-5.05,17.79-14.51,15.26c-1.79-0.62-3.32-1.39-4.58-2.45c-6.31-5.28-5.42-18.84-9.78-27.55
					c-1.74-4.07-5.23-8.13-9.49-11.59c-1.19-0.65-2.48-1.02-3.82-1.29c-1.33-0.27-2.71-0.43-4.13-0.49
					c-13.36-1.16-25.56,15.1-18.01,27.88c-0.58-9.29,2.9-19.17,11.62-23.82c3.2-1.45,7.12-2.32,10.89-2.11
					c1.26,0.07,2.5,0.27,3.62,0.84c3.49,1.84,4.08,5.33,6.4,7.65c-0.58,0-1.16,0.58-1.74,0.58c5.23,9.29,5.23,19.75,9.88,29.63
					c0.94,1.82,2.03,3.42,3.24,4.84c1.21,1.42,2.53,2.72,3.91,4.1c9.11,10.81,23.63,11.39,37.58,9.07
					c6.39-1.74,15.1,6.97,10.46,13.94c-1.16,2.32-4.65,0.58-6.97,1.16c-9.29,3.49-18.59,8.13-28.39,6c-2.24-0.25-4.4-0.68-6.48-1.31
					c-4.16-1.27-7.97-3.38-11.02-6.43c-3.05-3.49-7.08-10.24-4.49-14.38c0.88-1.37,2.49-2.45,5.24-2.92
					c-3.65-15.23-7.13-32.66-18.75-43.52c-1.74-1.34-2.32-3.66-3.49-4.24c-7.55-4.65-16.85,4.07-17.43,11.62
					c-0.48,9.2,7.91,11.13,14.42,14.89c1.3,0.75,2.53,1.57,3.6,2.57c1.48,1.35,1.64,2.92,1.03,4.35c-0.6,1.43-1.91,2.88-3.36,3.76
					c-4.07,2.32-8.13,1.16-12.2-1.16c-15.69-9.88-16.85-31.95-2.77-43.61c1.84-1.59,3-2.63,4.21-3.57c2.42-1.89,5.07-3.43,7.86-4.52
					c2.9-1.16,6-1.94,9.1-2.22c1.55-0.14,3.1-0.16,4.6,0.03c13.61,9.74,15.93,26.58,13.61,42.27c-0.58,2.61,0.15,5.37,1.67,7.41
					c0.76,1.02,1.72,1.85,2.8,2.43c6.56,4.68,9.47-5.19,11.79-9.26c-2.32,4.07-5.23,11.62-11.52,10.15c-1.3-0.49-2.42-1.58-3-3.76
					c-2.9-15.69-1.74-32.53,5.81-46.47c-7.55,2.9-13.36-2.32-19.82-5.3c-1.38-0.16-2.81-0.18-4.23-0.12
					c-4.26,0.18-8.48,1.06-12.54,3.09c-3.25,1.76-6.47,4.25-9.33,7.21c-0.71,0.74-1.41,1.51-2.17,2.4
					c-14.06,12.46-11.74,33.38,3.37,44.42c4.36,3.05,10.35,3.16,14.54,0.57c1.4-0.86,2.64-1.91,3.56-3.19
					c2.24-3.77-0.67-6.68-1.84-9.37c-1.01-0.73-2.13-1.2-3.3-1.53c-3.51-1.01-7.43-1.44-10.05-4.49c-3.49-4.07-4.07-9.88-1.16-14.52
					c4.07-4.94,8.86-4.5,13.36-2.11c1.5,0.8,2.97,2.01,4.39,3.5c6.65,12.54,17.68,26.49,14.2,41.59c-0.58,1.16-4.07-0.58-5.81-1.74
					c1.74,1.16,3.49,1.16,5.23,2.32c2.9-15.69-6.97-33.11-17.4-43.9c-1.74-0.98-3.51-1.85-5.25-2.57c-4.65-1.74-9.29,2.9-10.46,7.55
					c1.74-1.74,3.49-4.07,5.81-4.07c0.58,0,1.16,1.74,1.74,2.32c2.71,0.77,5.62,1.36,8.41,2.13c1.4,0.39,2.81,1.03,3.98,2.21
					c6.78,8.44,13.75,19.48,10.27,31.1c-0.58,0.58-1.74,1.16-2.86,1.21c-1.35,0.19-3.09,0.82-5.27,1.69
					c-0.29,2.32-1.45,4.36-2.54,6.32c-1.09,1.96-2.11,3.85-2.11,5.88c0,4.65,3.49,9.29,6.87,13.01c1.56,1.3,3.18,2.55,4.84,3.72
					c3.74,2.65,7.7,4.96,11.72,6.88c1.34,0.64,2.69,1.24,4.04,1.79c3.32,0.73,7.39,1.31,11.1,2.38c1.88,0.2,3.78,0.3,5.7,0.3
					c7.64-0.02,15.37-1.72,22.26-5.05c1.72-0.83,3.41-1.75,5.06-2.75c2.78-0.55,5.68-0.55,8.01-1.71c-2.32,1.16-4.65,1.16-7.18,2.28
					c-1.39,1.17-2.83,2.24-4.33,3.22c-5.98,3.92-13.08,6.11-20.44,7.27c5.81-1.74,11.62-2.9,16.85-5.23
					c-9.29,4.07-19.75,4.07-29.57,2.14c-1.9-0.44-3.77-0.97-5.62-1.57c-1.39-0.46-2.76-0.96-4.11-1.5
					c-5.13-3.11-10.76-6.49-16.3-10.24c-1.39-0.94-2.76-1.9-3.98-2.92c-3.16-5.66-14.78-9.72-10.13-16.69
					c0.97-1.36,1.78-2.78,2.42-4.22c0.34-0.73,0.86-1.5,1.65-2.37c0.79-0.87,1.85-1.84,3.26-2.97c1.51-0.95,3.08-2.1,4.45-3.38
					c1.08-0.79,2.21-1.77,2.97-3.02c2.68-3.21,0.36-7.86-2.55-10.18c-0.58,2.32-1.89,4.07-3.39,5.6c-1.5,1.53-3.19,2.86-4.53,4.35
					c-1.19,1.19-2.48,2.15-3.88,2.81c-2.8,1.31-6.02,1.38-9.7-0.56c-15.69-8.13-21.49-30.21-9.52-43.34
					c1.86-2.31,3.01-3.78,4.25-5.16c6.48-7.15,15.65-11.61,25.49-12.86c1.64-0.21,3.23-0.23,4.66,0.07c1.83-0.29,3,1.45,4.16,0.87
					c7.55-1.16,15.69-5.23,23.24-1.74c0.58,0.58,1.16,2.32,0.58,2.9c-7.55,8.13-15.69,20.91-8.71,28.47
					c2.32,2.9,6.97-8.13,13.36-8.71c6.68-0.87,10.75,3.2,14.01,8.55c1.09,1.78,2.04,3.72,2.36,5.76c1.07,6.61-4.74,13-0.68,19.39
					c1.16,1.74,3.49,1.74,4.07,0.58c4.65-8.71,13.94-9.88,20.33-15.69c0.58-0.58,0.58-1.74,0.44-3.19
					c-0.08-1.67-0.44-3.34-1.02-4.94c-1.16-2.9-4.65-9.88-6.97-6.39c-0.73,1.02-0.87,2.58-0.76,4.34c0.11,1.76,0.47,3.72,0.76,5.54
					c0,4.65-6.97,7.55-8.71,4.07c-1.16-2.32-3.49-4.65-4.59-7.52c-0.98-1.56-1.94-3.11-2.91-4.63c-4.87-7.61-10.12-14.38-19.8-16.32
					c6.97-5.23,15.69-1.16,23.51-3.06c2.02-0.54,4.08-0.86,6.12-1.01c11.04-1.16,23.82,3.49,27.84,14.89
					c0.71,1.95,1.35,3.88,1.96,5.77c2.51,7.76,4.57,15.66,7.78,23.1c0.64,1.48,1.32,2.95,1.96,4.28
					c4.62,11.21,6.36,22.83,8.39,34.74c0.2,1.59,0.27,3.4,0.25,5.39c-0.2,17.85-8.37,49.22-8.37,49.22L64.1,210.97l-39.5-34.86
					L14.73,137.77z"/>
			</g>
		</g>
	</g>
</g>
<g>
</g>
<g>
</g>
<g>
</g>
<g>
</g>
<g>
</g>
<g>
</g>
<g>
</g>
<g>
</g>
<g>
</g>
<g>
</g>
<g>
</g>
<g>
</g>
<g>
</g>
<g>
</g>
<g>
</g>
</svg>
