<svg xmlns="http://www.w3.org/2000/svg" viewBox="0 0 22.48 21.94"><defs><style>.cls-1{fill:none;stroke:#000;stroke-linecap:round;stroke-linejoin:round;stroke-width:0.8px;}</style></defs><title>svg-son</title><g id="Calque_2" data-name="Calque 2"><g id="Calque_1-2" data-name="Calque 1"><path d="M13.3.8a1.43,1.43,0,0,1,1.45,1.44V19.7a1.43,1.43,0,0,1-1.45,1.44,1.41,1.41,0,0,1-.92-.35L4.94,14.46a2.92,2.92,0,0,0,.68-1.82V9.3A2.84,2.84,0,0,0,5,7.47l7.43-6.32A1.41,1.41,0,0,1,13.3.8m0-.8a2.19,2.19,0,0,0-1.43.54l-8.19,7A2,2,0,0,1,4.81,9.3v3.34A2.11,2.11,0,0,1,3.7,14.46l8.16,6.94a2.23,2.23,0,0,0,3.69-1.7V2.24A2.24,2.24,0,0,0,13.3,0Z"/><path d="M2.8,7.3a2,2,0,0,1,2,2v3.34a2,2,0,0,1-4,0V9.3a2,2,0,0,1,2-2m0-.8A2.81,2.81,0,0,0,0,9.3v3.34a2.81,2.81,0,0,0,5.61,0V9.3A2.81,2.81,0,0,0,2.8,6.5Z"/><path class="cls-1" d="M18.06,7.1A7.39,7.39,0,0,1,18.2,15"/><path class="cls-1" d="M20.23,5.26a10.29,10.29,0,0,1,.15,11.55"/></g></g></svg>