{
  "asset": {
    "version": "2.0",
    "generator": "THREE.GLTFExporter"
  },
  "scenes": [
    {
      "nodes": [
        4
      ],
      "name": "AuxScene"
    }
  ],
  "scene": 0,
  "nodes": [
    {
      "matrix": [
        0.001745274535860486,
        -0.9999984769132876,
        -0.000013707636004017636,
        0,
        -0.9999676346050528,
        -0.0017453283658976913,
        0.00785388892653892,
        0,
        -0.007853900888711003,
        8.673617379884034e-19,
        -0.9999691576447893,
        0,
        -0.20655629882669946,
        37.23254978127517,
        -0.381265321853557,
        1
      ],
      "name": "Editeur_Cinema_4D",
      "camera": 0
    },
    {
      "name": "Plan_2",
      "mesh": 0
    },
    {
      "name": "Plan_1"
    },
    {
      "name": "Plan"
    },
    {
      "children": [
        0,
        1,
        2,
        3
      ]
    }
  ],
  "cameras": [
    {
      "type": "perspective",
      "perspective": {
        "aspectRatio": 1.7777777777777777,
        "yfov": 0.30027711103582555,
        "zfar": 10,
        "znear": 0.000001
      },
      "name": "PerspectiveCamera"
    }
  ],
  "bufferViews": [
    {
      "buffer": 0,
      "byteOffset": 0,
      "byteLength": 720000,
      "target": 34962,
      "byteStride": 12
    },
    {
      "buffer": 0,
      "byteOffset": 720000,
      "byteLength": 720000,
      "target": 34962,
      "byteStride": 12
    },
    {
      "buffer": 0,
      "byteOffset": 1440000,
      "byteLength": 480000,
      "target": 34962,
      "byteStride": 8
    },
    {
      "buffer": 0,
      "byteOffset": 1920000,
      "byteLength": 120000,
      "target": 34963
    }
  ],
  "buffers": [
    {
      "byteLength": 2040000,
      "uri": "data:application/octet-stream;base64,"
    }
  ],
  "accessors": [
    {
      "bufferView": 0,
      "componentType": 5126,
      "count": 60000,
      "max": [
        10,
        5.5134806632995605,
        17
      ],
      "min": [
        -10,
        1.3723795413970947,
        -17
      ],
      "type": "VEC3"
    },
    {
      "bufferView": 1,
      "componentType": 5126,
      "count": 60000,
      "max": [
        0.4693065285682678,
        0.9999988079071045,
        0.37381359934806824
      ],
      "min": [
        -0.5167275071144104,
        0.8395776748657227,
        -0.3798832893371582
      ],
      "type": "VEC3"
    },
    {
      "bufferView": 2,
      "componentType": 5126,
      "count": 60000,
      "max": [
        1,
        1
      ],
      "min": [
        0,
        0
      ],
      "type": "VEC2"
    },
    {
      "bufferView": 3,
      "componentType": 5123,
      "count": 60000,
      "max": [
        59999
      ],
      "min": [
        0
      ],
      "type": "SCALAR"
    }
  ],
  "materials": [
    {
      "pbrMetallicRoughness": {
        "baseColorFactor": [
          0.8,
          0.8,
          0.8,
          1
        ],
        "metallicFactor": 0.5,
        "roughnessFactor": 0.5
      }
    }
  ],
  "meshes": [
    {
      "primitives": [
        {
          "mode": 4,
          "attributes": {
            "POSITION": 0,
            "NORMAL": 1,
            "TEXCOORD_0": 2
          },
          "indices": 3,
          "material": 0
        }
      ]
    }
  ]
}